<?xml version="1.0" encoding="UTF-8" standalone="yes"?>
<!DOCTYPE svg PUBLIC "-//W3C//DTD SVG 1.0//EN" "http://www.w3.org/TR/2001/REC-SVG-20010904/DTD/svg10.dtd">
<svg width="280" height="280" xmlns="http://www.w3.org/2000/svg" xmlns:xlink="http://www.w3.org/1999/xlink">
<g id="quickmark" fill="black" transform="translate(40,40)">
<rect x="0" y="0" width="10" height="10"/>
<rect x="20" y="0" width="10" height="10"/>
<rect x="40" y="0" width="10" height="10"/>
<rect x="60" y="0" width="10" height="10"/>
<rect x="80" y="0" width="10" height="10"/>
<rect x="100" y="0" width="10" height="10"/>
<rect x="120" y="0" width="10" height="10"/>
<rect x="140" y="0" width="10" height="10"/>
<rect x="160" y="0" width="10" height="10"/>
<rect x="180" y="0" width="10" height="10"/>
<rect x="0" y="10" width="10" height="10"/>
<rect x="50" y="10" width="10" height="10"/>
<rect x="80" y="10" width="10" height="10"/>
<rect x="120" y="10" width="10" height="10"/>
<rect x="140" y="10" width="10" height="10"/>
<rect x="150" y="10" width="10" height="10"/>
<rect x="170" y="10" width="10" height="10"/>
<rect x="180" y="10" width="10" height="10"/>
<rect x="190" y="10" width="10" height="10"/>
<rect x="0" y="20" width="10" height="10"/>
<rect x="10" y="20" width="10" height="10"/>
<rect x="20" y="20" width="10" height="10"/>
<rect x="30" y="20" width="10" height="10"/>
<rect x="70" y="20" width="10" height="10"/>
<rect x="80" y="20" width="10" height="10"/>
<rect x="110" y="20" width="10" height="10"/>
<rect x="120" y="20" width="10" height="10"/>
<rect x="140" y="20" width="10" height="10"/>
<rect x="150" y="20" width="10" height="10"/>
<rect x="160" y="20" width="10" height="10"/>
<rect x="170" y="20" width="10" height="10"/>
<rect x="0" y="30" width="10" height="10"/>
<rect x="10" y="30" width="10" height="10"/>
<rect x="20" y="30" width="10" height="10"/>
<rect x="30" y="30" width="10" height="10"/>
<rect x="50" y="30" width="10" height="10"/>
<rect x="60" y="30" width="10" height="10"/>
<rect x="90" y="30" width="10" height="10"/>
<rect x="100" y="30" width="10" height="10"/>
<rect x="120" y="30" width="10" height="10"/>
<rect x="130" y="30" width="10" height="10"/>
<rect x="140" y="30" width="10" height="10"/>
<rect x="150" y="30" width="10" height="10"/>
<rect x="160" y="30" width="10" height="10"/>
<rect x="170" y="30" width="10" height="10"/>
<rect x="180" y="30" width="10" height="10"/>
<rect x="190" y="30" width="10" height="10"/>
<rect x="0" y="40" width="10" height="10"/>
<rect x="20" y="40" width="10" height="10"/>
<rect x="30" y="40" width="10" height="10"/>
<rect x="40" y="40" width="10" height="10"/>
<rect x="50" y="40" width="10" height="10"/>
<rect x="60" y="40" width="10" height="10"/>
<rect x="70" y="40" width="10" height="10"/>
<rect x="80" y="40" width="10" height="10"/>
<rect x="120" y="40" width="10" height="10"/>
<rect x="130" y="40" width="10" height="10"/>
<rect x="150" y="40" width="10" height="10"/>
<rect x="160" y="40" width="10" height="10"/>
<rect x="180" y="40" width="10" height="10"/>
<rect x="0" y="50" width="10" height="10"/>
<rect x="10" y="50" width="10" height="10"/>
<rect x="20" y="50" width="10" height="10"/>
<rect x="40" y="50" width="10" height="10"/>
<rect x="50" y="50" width="10" height="10"/>
<rect x="60" y="50" width="10" height="10"/>
<rect x="80" y="50" width="10" height="10"/>
<rect x="110" y="50" width="10" height="10"/>
<rect x="120" y="50" width="10" height="10"/>
<rect x="150" y="50" width="10" height="10"/>
<rect x="160" y="50" width="10" height="10"/>
<rect x="190" y="50" width="10" height="10"/>
<rect x="0" y="60" width="10" height="10"/>
<rect x="20" y="60" width="10" height="10"/>
<rect x="30" y="60" width="10" height="10"/>
<rect x="40" y="60" width="10" height="10"/>
<rect x="60" y="60" width="10" height="10"/>
<rect x="80" y="60" width="10" height="10"/>
<rect x="90" y="60" width="10" height="10"/>
<rect x="100" y="60" width="10" height="10"/>
<rect x="120" y="60" width="10" height="10"/>
<rect x="130" y="60" width="10" height="10"/>
<rect x="150" y="60" width="10" height="10"/>
<rect x="180" y="60" width="10" height="10"/>
<rect x="0" y="70" width="10" height="10"/>
<rect x="40" y="70" width="10" height="10"/>
<rect x="60" y="70" width="10" height="10"/>
<rect x="70" y="70" width="10" height="10"/>
<rect x="80" y="70" width="10" height="10"/>
<rect x="100" y="70" width="10" height="10"/>
<rect x="110" y="70" width="10" height="10"/>
<rect x="120" y="70" width="10" height="10"/>
<rect x="130" y="70" width="10" height="10"/>
<rect x="140" y="70" width="10" height="10"/>
<rect x="150" y="70" width="10" height="10"/>
<rect x="160" y="70" width="10" height="10"/>
<rect x="170" y="70" width="10" height="10"/>
<rect x="190" y="70" width="10" height="10"/>
<rect x="0" y="80" width="10" height="10"/>
<rect x="10" y="80" width="10" height="10"/>
<rect x="20" y="80" width="10" height="10"/>
<rect x="70" y="80" width="10" height="10"/>
<rect x="90" y="80" width="10" height="10"/>
<rect x="130" y="80" width="10" height="10"/>
<rect x="140" y="80" width="10" height="10"/>
<rect x="150" y="80" width="10" height="10"/>
<rect x="170" y="80" width="10" height="10"/>
<rect x="180" y="80" width="10" height="10"/>
<rect x="0" y="90" width="10" height="10"/>
<rect x="10" y="90" width="10" height="10"/>
<rect x="30" y="90" width="10" height="10"/>
<rect x="60" y="90" width="10" height="10"/>
<rect x="70" y="90" width="10" height="10"/>
<rect x="80" y="90" width="10" height="10"/>
<rect x="120" y="90" width="10" height="10"/>
<rect x="150" y="90" width="10" height="10"/>
<rect x="160" y="90" width="10" height="10"/>
<rect x="190" y="90" width="10" height="10"/>
<rect x="0" y="100" width="10" height="10"/>
<rect x="10" y="100" width="10" height="10"/>
<rect x="30" y="100" width="10" height="10"/>
<rect x="60" y="100" width="10" height="10"/>
<rect x="70" y="100" width="10" height="10"/>
<rect x="80" y="100" width="10" height="10"/>
<rect x="110" y="100" width="10" height="10"/>
<rect x="120" y="100" width="10" height="10"/>
<rect x="130" y="100" width="10" height="10"/>
<rect x="140" y="100" width="10" height="10"/>
<rect x="0" y="110" width="10" height="10"/>
<rect x="10" y="110" width="10" height="10"/>
<rect x="40" y="110" width="10" height="10"/>
<rect x="70" y="110" width="10" height="10"/>
<rect x="80" y="110" width="10" height="10"/>
<rect x="100" y="110" width="10" height="10"/>
<rect x="110" y="110" width="10" height="10"/>
<rect x="120" y="110" width="10" height="10"/>
<rect x="130" y="110" width="10" height="10"/>
<rect x="140" y="110" width="10" height="10"/>
<rect x="160" y="110" width="10" height="10"/>
<rect x="170" y="110" width="10" height="10"/>
<rect x="180" y="110" width="10" height="10"/>
<rect x="190" y="110" width="10" height="10"/>
<rect x="0" y="120" width="10" height="10"/>
<rect x="10" y="120" width="10" height="10"/>
<rect x="30" y="120" width="10" height="10"/>
<rect x="40" y="120" width="10" height="10"/>
<rect x="60" y="120" width="10" height="10"/>
<rect x="70" y="120" width="10" height="10"/>
<rect x="80" y="120" width="10" height="10"/>
<rect x="100" y="120" width="10" height="10"/>
<rect x="140" y="120" width="10" height="10"/>
<rect x="150" y="120" width="10" height="10"/>
<rect x="160" y="120" width="10" height="10"/>
<rect x="170" y="120" width="10" height="10"/>
<rect x="180" y="120" width="10" height="10"/>
<rect x="0" y="130" width="10" height="10"/>
<rect x="10" y="130" width="10" height="10"/>
<rect x="20" y="130" width="10" height="10"/>
<rect x="30" y="130" width="10" height="10"/>
<rect x="50" y="130" width="10" height="10"/>
<rect x="70" y="130" width="10" height="10"/>
<rect x="80" y="130" width="10" height="10"/>
<rect x="110" y="130" width="10" height="10"/>
<rect x="120" y="130" width="10" height="10"/>
<rect x="190" y="130" width="10" height="10"/>
<rect x="0" y="140" width="10" height="10"/>
<rect x="20" y="140" width="10" height="10"/>
<rect x="40" y="140" width="10" height="10"/>
<rect x="90" y="140" width="10" height="10"/>
<rect x="120" y="140" width="10" height="10"/>
<rect x="140" y="140" width="10" height="10"/>
<rect x="170" y="140" width="10" height="10"/>
<rect x="0" y="150" width="10" height="10"/>
<rect x="50" y="150" width="10" height="10"/>
<rect x="70" y="150" width="10" height="10"/>
<rect x="90" y="150" width="10" height="10"/>
<rect x="110" y="150" width="10" height="10"/>
<rect x="170" y="150" width="10" height="10"/>
<rect x="190" y="150" width="10" height="10"/>
<rect x="0" y="160" width="10" height="10"/>
<rect x="20" y="160" width="10" height="10"/>
<rect x="30" y="160" width="10" height="10"/>
<rect x="60" y="160" width="10" height="10"/>
<rect x="90" y="160" width="10" height="10"/>
<rect x="120" y="160" width="10" height="10"/>
<rect x="130" y="160" width="10" height="10"/>
<rect x="160" y="160" width="10" height="10"/>
<rect x="0" y="170" width="10" height="10"/>
<rect x="10" y="170" width="10" height="10"/>
<rect x="20" y="170" width="10" height="10"/>
<rect x="50" y="170" width="10" height="10"/>
<rect x="70" y="170" width="10" height="10"/>
<rect x="80" y="170" width="10" height="10"/>
<rect x="90" y="170" width="10" height="10"/>
<rect x="110" y="170" width="10" height="10"/>
<rect x="120" y="170" width="10" height="10"/>
<rect x="130" y="170" width="10" height="10"/>
<rect x="160" y="170" width="10" height="10"/>
<rect x="170" y="170" width="10" height="10"/>
<rect x="190" y="170" width="10" height="10"/>
<rect x="0" y="180" width="10" height="10"/>
<rect x="10" y="180" width="10" height="10"/>
<rect x="20" y="180" width="10" height="10"/>
<rect x="40" y="180" width="10" height="10"/>
<rect x="60" y="180" width="10" height="10"/>
<rect x="80" y="180" width="10" height="10"/>
<rect x="100" y="180" width="10" height="10"/>
<rect x="180" y="180" width="10" height="10"/>
<rect x="0" y="190" width="10" height="10"/>
<rect x="10" y="190" width="10" height="10"/>
<rect x="20" y="190" width="10" height="10"/>
<rect x="30" y="190" width="10" height="10"/>
<rect x="40" y="190" width="10" height="10"/>
<rect x="50" y="190" width="10" height="10"/>
<rect x="60" y="190" width="10" height="10"/>
<rect x="70" y="190" width="10" height="10"/>
<rect x="80" y="190" width="10" height="10"/>
<rect x="90" y="190" width="10" height="10"/>
<rect x="100" y="190" width="10" height="10"/>
<rect x="110" y="190" width="10" height="10"/>
<rect x="120" y="190" width="10" height="10"/>
<rect x="130" y="190" width="10" height="10"/>
<rect x="140" y="190" width="10" height="10"/>
<rect x="150" y="190" width="10" height="10"/>
<rect x="160" y="190" width="10" height="10"/>
<rect x="170" y="190" width="10" height="10"/>
<rect x="180" y="190" width="10" height="10"/>
<rect x="190" y="190" width="10" height="10"/>
</g></svg>